<?xml version="1.0" encoding="UTF-8" standalone="no"?>
<!DOCTYPE svg PUBLIC "-//W3C//DTD SVG 1.1//EN"
 "http://www.w3.org/Graphics/SVG/1.1/DTD/svg11.dtd">
<!-- Generated by graphviz version 13.1.0 (20250701.0955)
 -->
<!-- Pages: 1 -->
<svg width="312pt" height="2675pt"
 viewBox="0.00 0.00 312.00 2675.00" xmlns="http://www.w3.org/2000/svg" xmlns:xlink="http://www.w3.org/1999/xlink">
<g id="graph0" class="graph" transform="scale(1 1) rotate(0) translate(36 2638.9)">
<polygon fill="white" stroke="none" points="-36,36 -36,-2638.9 276.13,-2638.9 276.13,36 -36,36"/>
<!-- node_0 -->
<g id="node1" class="node">
<title>node_0</title>
<ellipse fill="#4caf50" stroke="black" stroke-width="2" cx="120.07" cy="-2577.55" rx="48.05" ry="25.35"/>
<text xml:space="preserve" text-anchor="middle" x="120.07" y="-2573.27" font-family="Arial" font-size="12.00" fill="white">Start</text>
</g>
<!-- node_1 -->
<g id="node2" class="node">
<title>node_1</title>
<path fill="#2196f3" stroke="black" stroke-width="2" d="M152.54,-2466.2C152.54,-2466.2 87.59,-2466.2 87.59,-2466.2 81.59,-2466.2 75.59,-2460.2 75.59,-2454.2 75.59,-2454.2 75.59,-2428.1 75.59,-2428.1 75.59,-2422.1 81.59,-2416.1 87.59,-2416.1 87.59,-2416.1 152.54,-2416.1 152.54,-2416.1 158.54,-2416.1 164.54,-2422.1 164.54,-2428.1 164.54,-2428.1 164.54,-2454.2 164.54,-2454.2 164.54,-2460.2 158.54,-2466.2 152.54,-2466.2"/>
<text xml:space="preserve" text-anchor="middle" x="120.07" y="-2444" font-family="Arial" font-size="12.00" fill="white">Import</text>
<text xml:space="preserve" text-anchor="middle" x="120.07" y="-2429.75" font-family="Arial" font-size="12.00" fill="white">Modules</text>
</g>
<!-- node_0&#45;&gt;node_1 -->
<g id="edge1" class="edge">
<title>node_0&#45;&gt;node_1</title>
<path fill="none" stroke="#333333" stroke-width="2" d="M120.07,-2551.25C120.07,-2551.25 120.07,-2479.93 120.07,-2479.93"/>
<polygon fill="#333333" stroke="#333333" stroke-width="2" points="123.57,-2479.93 120.07,-2469.93 116.57,-2479.93 123.57,-2479.93"/>
</g>
<!-- node_2 -->
<g id="node3" class="node">
<title>node_2</title>
<path fill="#9c27b0" stroke="black" stroke-width="2" d="M174.67,-2330.1C174.67,-2330.1 65.47,-2330.1 65.47,-2330.1 59.47,-2330.1 53.47,-2324.1 53.47,-2318.1 53.47,-2318.1 53.47,-2292 53.47,-2292 53.47,-2286 59.47,-2280 65.47,-2280 65.47,-2280 174.67,-2280 174.67,-2280 180.67,-2280 186.67,-2286 186.67,-2292 186.67,-2292 186.67,-2318.1 186.67,-2318.1 186.67,-2324.1 180.67,-2330.1 174.67,-2330.1"/>
<text xml:space="preserve" text-anchor="middle" x="120.07" y="-2307.9" font-family="Arial" font-size="12.00" fill="white">Generate</text>
<text xml:space="preserve" text-anchor="middle" x="120.07" y="-2293.65" font-family="Arial" font-size="12.00" fill="white">Random Sample</text>
</g>
<!-- node_1&#45;&gt;node_2 -->
<g id="edge2" class="edge">
<title>node_1&#45;&gt;node_2</title>
<path fill="none" stroke="#333333" stroke-width="2" d="M120.07,-2415.23C120.07,-2415.23 120.07,-2343.9 120.07,-2343.9"/>
<polygon fill="#333333" stroke="#333333" stroke-width="2" points="123.57,-2343.9 120.07,-2333.9 116.57,-2343.9 123.57,-2343.9"/>
</g>
<!-- node_3 -->
<g id="node4" class="node">
<title>node_3</title>
<polygon fill="#e91e63" stroke="black" stroke-width="2" points="201.4,-2194 72.02,-2194 38.73,-2093.8 168.12,-2093.8 201.4,-2194"/>
<text xml:space="preserve" text-anchor="middle" x="120.07" y="-2146.75" font-family="Arial" font-size="12.00" fill="white">Print</text>
<text xml:space="preserve" text-anchor="middle" x="120.07" y="-2132.5" font-family="Arial" font-size="12.00" fill="white">Output</text>
</g>
<!-- node_2&#45;&gt;node_3 -->
<g id="edge3" class="edge">
<title>node_2&#45;&gt;node_3</title>
<path fill="none" stroke="#333333" stroke-width="2" d="M120.07,-2279.16C120.07,-2279.16 120.07,-2207.8 120.07,-2207.8"/>
<polygon fill="#333333" stroke="#333333" stroke-width="2" points="123.57,-2207.8 120.07,-2197.8 116.57,-2207.8 123.57,-2207.8"/>
</g>
<!-- node_4 -->
<g id="node5" class="node">
<title>node_4</title>
<path fill="#2196f3" stroke="black" stroke-width="2" d="M149.17,-2007.8C149.17,-2007.8 90.97,-2007.8 90.97,-2007.8 84.97,-2007.8 78.97,-2001.8 78.97,-1995.8 78.97,-1995.8 78.97,-1969.7 78.97,-1969.7 78.97,-1963.7 84.97,-1957.7 90.97,-1957.7 90.97,-1957.7 149.17,-1957.7 149.17,-1957.7 155.17,-1957.7 161.17,-1963.7 161.17,-1969.7 161.17,-1969.7 161.17,-1995.8 161.17,-1995.8 161.17,-2001.8 155.17,-2007.8 149.17,-2007.8"/>
<text xml:space="preserve" text-anchor="middle" x="120.07" y="-1985.6" font-family="Arial" font-size="12.00" fill="white">Set a</text>
<text xml:space="preserve" text-anchor="middle" x="120.07" y="-1971.35" font-family="Arial" font-size="12.00" fill="white">= value</text>
</g>
<!-- node_3&#45;&gt;node_4 -->
<g id="edge4" class="edge">
<title>node_3&#45;&gt;node_4</title>
<path fill="none" stroke="#333333" stroke-width="2" d="M120.07,-2092.91C120.07,-2092.91 120.07,-2021.67 120.07,-2021.67"/>
<polygon fill="#333333" stroke="#333333" stroke-width="2" points="123.57,-2021.67 120.07,-2011.67 116.57,-2021.67 123.57,-2021.67"/>
</g>
<!-- node_5 -->
<g id="node6" class="node">
<title>node_5</title>
<polygon fill="#9c27b0" stroke="black" stroke-width="2" points="120.07,-1871.7 42.09,-1835.7 120.07,-1799.7 198.04,-1835.7 120.07,-1871.7"/>
<text xml:space="preserve" text-anchor="middle" x="120.07" y="-1838.55" font-family="Arial" font-size="12.00">While</text>
<text xml:space="preserve" text-anchor="middle" x="120.07" y="-1824.3" font-family="Arial" font-size="12.00">a != 4?</text>
</g>
<!-- node_4&#45;&gt;node_5 -->
<g id="edge5" class="edge">
<title>node_4&#45;&gt;node_5</title>
<path fill="none" stroke="#333333" stroke-width="2" d="M120.07,-1956.8C120.07,-1956.8 120.07,-1885.73 120.07,-1885.73"/>
<polygon fill="#333333" stroke="#333333" stroke-width="2" points="123.57,-1885.73 120.07,-1875.73 116.57,-1885.73 123.57,-1885.73"/>
</g>
<!-- node_6 -->
<g id="node7" class="node">
<title>node_6</title>
<path fill="#2196f3" stroke="black" stroke-width="2" d="M149.17,-1713.7C149.17,-1713.7 90.97,-1713.7 90.97,-1713.7 84.97,-1713.7 78.97,-1707.7 78.97,-1701.7 78.97,-1701.7 78.97,-1675.6 78.97,-1675.6 78.97,-1669.6 84.97,-1663.6 90.97,-1663.6 90.97,-1663.6 149.17,-1663.6 149.17,-1663.6 155.17,-1663.6 161.17,-1669.6 161.17,-1675.6 161.17,-1675.6 161.17,-1701.7 161.17,-1701.7 161.17,-1707.7 155.17,-1713.7 149.17,-1713.7"/>
<text xml:space="preserve" text-anchor="middle" x="120.07" y="-1691.5" font-family="Arial" font-size="12.00" fill="white">Set a</text>
<text xml:space="preserve" text-anchor="middle" x="120.07" y="-1677.25" font-family="Arial" font-size="12.00" fill="white">= value</text>
</g>
<!-- node_5&#45;&gt;node_6 -->
<g id="edge6" class="edge">
<title>node_5&#45;&gt;node_6</title>
<path fill="none" stroke="#333333" stroke-width="2" d="M120.07,-1798.97C120.07,-1798.97 120.07,-1727.33 120.07,-1727.33"/>
<polygon fill="#333333" stroke="#333333" stroke-width="2" points="123.57,-1727.33 120.07,-1717.33 116.57,-1727.33 123.57,-1727.33"/>
</g>
<!-- node_7 -->
<g id="node8" class="node">
<title>node_7</title>
<path fill="#2196f3" stroke="black" stroke-width="2" d="M157.04,-1577.6C157.04,-1577.6 83.09,-1577.6 83.09,-1577.6 77.09,-1577.6 71.09,-1571.6 71.09,-1565.6 71.09,-1565.6 71.09,-1539.5 71.09,-1539.5 71.09,-1533.5 77.09,-1527.5 83.09,-1527.5 83.09,-1527.5 157.04,-1527.5 157.04,-1527.5 163.04,-1527.5 169.04,-1533.5 169.04,-1539.5 169.04,-1539.5 169.04,-1565.6 169.04,-1565.6 169.04,-1571.6 163.04,-1577.6 157.04,-1577.6"/>
<text xml:space="preserve" text-anchor="middle" x="120.07" y="-1555.4" font-family="Arial" font-size="12.00" fill="white">Convert to</text>
<text xml:space="preserve" text-anchor="middle" x="120.07" y="-1541.15" font-family="Arial" font-size="12.00" fill="white">List</text>
</g>
<!-- node_6&#45;&gt;node_7 -->
<g id="edge7" class="edge">
<title>node_6&#45;&gt;node_7</title>
<path fill="none" stroke="#333333" stroke-width="2" d="M120.07,-1662.73C120.07,-1662.73 120.07,-1591.4 120.07,-1591.4"/>
<polygon fill="#333333" stroke="#333333" stroke-width="2" points="123.57,-1591.4 120.07,-1581.4 116.57,-1591.4 123.57,-1591.4"/>
</g>
<!-- node_8 -->
<g id="node9" class="node">
<title>node_8</title>
<polygon fill="#9c27b0" stroke="black" stroke-width="2" points="120.07,-1441.5 42.09,-1405.5 120.07,-1369.5 198.04,-1405.5 120.07,-1441.5"/>
<text xml:space="preserve" text-anchor="middle" x="120.07" y="-1408.35" font-family="Arial" font-size="12.00">For i</text>
<text xml:space="preserve" text-anchor="middle" x="120.07" y="-1394.1" font-family="Arial" font-size="12.00">in user</text>
</g>
<!-- node_7&#45;&gt;node_8 -->
<g id="edge8" class="edge">
<title>node_7&#45;&gt;node_8</title>
<path fill="none" stroke="#333333" stroke-width="2" d="M120.07,-1526.6C120.07,-1526.6 120.07,-1455.53 120.07,-1455.53"/>
<polygon fill="#333333" stroke="#333333" stroke-width="2" points="123.57,-1455.53 120.07,-1445.53 116.57,-1455.53 123.57,-1455.53"/>
</g>
<!-- node_9 -->
<g id="node10" class="node">
<title>node_9</title>
<polygon fill="#ff9800" stroke="black" stroke-width="2" points="120.07,-1283.5 8.86,-1247.5 120.07,-1211.5 231.27,-1247.5 120.07,-1283.5"/>
<text xml:space="preserve" text-anchor="middle" x="120.07" y="-1250.35" font-family="Arial" font-size="12.00">If</text>
<text xml:space="preserve" text-anchor="middle" x="120.07" y="-1236.1" font-family="Arial" font-size="12.00">int() == expr?</text>
</g>
<!-- node_8&#45;&gt;node_9 -->
<g id="edge9" class="edge">
<title>node_8&#45;&gt;node_9</title>
<path fill="none" stroke="#333333" stroke-width="2" d="M120.07,-1368.46C120.07,-1368.46 120.07,-1297.34 120.07,-1297.34"/>
<polygon fill="#333333" stroke="#333333" stroke-width="2" points="123.57,-1297.34 120.07,-1287.34 116.57,-1297.34 123.57,-1297.34"/>
</g>
<!-- node_10 -->
<g id="node11" class="node">
<title>node_10</title>
<path fill="#2196f3" stroke="black" stroke-width="2" d="M144.29,-1125.5C144.29,-1125.5 95.84,-1125.5 95.84,-1125.5 89.84,-1125.5 83.84,-1119.5 83.84,-1113.5 83.84,-1113.5 83.84,-1087.4 83.84,-1087.4 83.84,-1081.4 89.84,-1075.4 95.84,-1075.4 95.84,-1075.4 144.29,-1075.4 144.29,-1075.4 150.29,-1075.4 156.29,-1081.4 156.29,-1087.4 156.29,-1087.4 156.29,-1113.5 156.29,-1113.5 156.29,-1119.5 150.29,-1125.5 144.29,-1125.5"/>
<text xml:space="preserve" text-anchor="middle" x="120.07" y="-1103.3" font-family="Arial" font-size="12.00" fill="white">a +=</text>
<text xml:space="preserve" text-anchor="middle" x="120.07" y="-1089.05" font-family="Arial" font-size="12.00" fill="white">value</text>
</g>
<!-- node_9&#45;&gt;node_10 -->
<g id="edge10" class="edge">
<title>node_9&#45;&gt;node_10</title>
<path fill="none" stroke="#333333" stroke-width="2" d="M120.07,-1210.77C120.07,-1210.77 120.07,-1139.13 120.07,-1139.13"/>
<polygon fill="#333333" stroke="#333333" stroke-width="2" points="123.57,-1139.13 120.07,-1129.13 116.57,-1139.13 123.57,-1139.13"/>
</g>
<!-- node_11 -->
<g id="node12" class="node">
<title>node_11</title>
<polygon fill="#ff9800" stroke="black" stroke-width="2" points="120.07,-989.4 0,-953.4 120.07,-917.4 240.13,-953.4 120.07,-989.4"/>
<text xml:space="preserve" text-anchor="middle" x="120.07" y="-956.25" font-family="Arial" font-size="12.00">If</text>
<text xml:space="preserve" text-anchor="middle" x="120.07" y="-942" font-family="Arial" font-size="12.00">int() ? answer?</text>
</g>
<!-- node_10&#45;&gt;node_11 -->
<g id="edge11" class="edge">
<title>node_10&#45;&gt;node_11</title>
<path fill="none" stroke="#333333" stroke-width="2" d="M120.07,-1074.5C120.07,-1074.5 120.07,-1003.43 120.07,-1003.43"/>
<polygon fill="#333333" stroke="#333333" stroke-width="2" points="123.57,-1003.43 120.07,-993.43 116.57,-1003.43 123.57,-1003.43"/>
</g>
<!-- node_12 -->
<g id="node13" class="node">
<title>node_12</title>
<path fill="#2196f3" stroke="black" stroke-width="2" d="M144.29,-831.4C144.29,-831.4 95.84,-831.4 95.84,-831.4 89.84,-831.4 83.84,-825.4 83.84,-819.4 83.84,-819.4 83.84,-793.3 83.84,-793.3 83.84,-787.3 89.84,-781.3 95.84,-781.3 95.84,-781.3 144.29,-781.3 144.29,-781.3 150.29,-781.3 156.29,-787.3 156.29,-793.3 156.29,-793.3 156.29,-819.4 156.29,-819.4 156.29,-825.4 150.29,-831.4 144.29,-831.4"/>
<text xml:space="preserve" text-anchor="middle" x="120.07" y="-809.2" font-family="Arial" font-size="12.00" fill="white">b +=</text>
<text xml:space="preserve" text-anchor="middle" x="120.07" y="-794.95" font-family="Arial" font-size="12.00" fill="white">value</text>
</g>
<!-- node_11&#45;&gt;node_12 -->
<g id="edge12" class="edge">
<title>node_11&#45;&gt;node_12</title>
<path fill="none" stroke="#333333" stroke-width="2" d="M120.07,-916.67C120.07,-916.67 120.07,-845.03 120.07,-845.03"/>
<polygon fill="#333333" stroke="#333333" stroke-width="2" points="123.57,-845.03 120.07,-835.03 116.57,-845.03 123.57,-845.03"/>
</g>
<!-- node_13 -->
<g id="node14" class="node">
<title>node_13</title>
<path fill="#2196f3" stroke="black" stroke-width="2" d="M144.29,-695.3C144.29,-695.3 95.84,-695.3 95.84,-695.3 89.84,-695.3 83.84,-689.3 83.84,-683.3 83.84,-683.3 83.84,-657.2 83.84,-657.2 83.84,-651.2 89.84,-645.2 95.84,-645.2 95.84,-645.2 144.29,-645.2 144.29,-645.2 150.29,-645.2 156.29,-651.2 156.29,-657.2 156.29,-657.2 156.29,-683.3 156.29,-683.3 156.29,-689.3 150.29,-695.3 144.29,-695.3"/>
<text xml:space="preserve" text-anchor="middle" x="120.07" y="-673.1" font-family="Arial" font-size="12.00" fill="white">n +=</text>
<text xml:space="preserve" text-anchor="middle" x="120.07" y="-658.85" font-family="Arial" font-size="12.00" fill="white">value</text>
</g>
<!-- node_12&#45;&gt;node_13 -->
<g id="edge13" class="edge">
<title>node_12&#45;&gt;node_13</title>
<path fill="none" stroke="#333333" stroke-width="2" d="M120.07,-780.43C120.07,-780.43 120.07,-709.1 120.07,-709.1"/>
<polygon fill="#333333" stroke="#333333" stroke-width="2" points="123.57,-709.1 120.07,-699.1 116.57,-709.1 123.57,-709.1"/>
</g>
<!-- node_14 -->
<g id="node15" class="node">
<title>node_14</title>
<path fill="#607d8b" stroke="black" stroke-width="2" d="M155.92,-559.2C155.92,-559.2 84.22,-559.2 84.22,-559.2 78.22,-559.2 72.22,-553.2 72.22,-547.2 72.22,-547.2 72.22,-521.1 72.22,-521.1 72.22,-515.1 78.22,-509.1 84.22,-509.1 84.22,-509.1 155.92,-509.1 155.92,-509.1 161.92,-509.1 167.92,-515.1 167.92,-521.1 167.92,-521.1 167.92,-547.2 167.92,-547.2 167.92,-553.2 161.92,-559.2 155.92,-559.2"/>
<text xml:space="preserve" text-anchor="middle" x="120.07" y="-537" font-family="Arial" font-size="12.00" fill="white">String</text>
<text xml:space="preserve" text-anchor="middle" x="120.07" y="-522.75" font-family="Arial" font-size="12.00" fill="white">Operation</text>
</g>
<!-- node_13&#45;&gt;node_14 -->
<g id="edge14" class="edge">
<title>node_13&#45;&gt;node_14</title>
<path fill="none" stroke="#333333" stroke-width="2" d="M120.07,-644.33C120.07,-644.33 120.07,-573 120.07,-573"/>
<polygon fill="#333333" stroke="#333333" stroke-width="2" points="123.57,-573 120.07,-563 116.57,-573 123.57,-573"/>
</g>
<!-- node_15 -->
<g id="node16" class="node">
<title>node_15</title>
<polygon fill="#e91e63" stroke="black" stroke-width="2" points="201.4,-423.1 72.02,-423.1 38.73,-322.9 168.12,-322.9 201.4,-423.1"/>
<text xml:space="preserve" text-anchor="middle" x="120.07" y="-375.85" font-family="Arial" font-size="12.00" fill="white">Print</text>
<text xml:space="preserve" text-anchor="middle" x="120.07" y="-361.6" font-family="Arial" font-size="12.00" fill="white">Output</text>
</g>
<!-- node_14&#45;&gt;node_15 -->
<g id="edge15" class="edge">
<title>node_14&#45;&gt;node_15</title>
<path fill="none" stroke="#333333" stroke-width="2" d="M120.07,-508.26C120.07,-508.26 120.07,-436.9 120.07,-436.9"/>
<polygon fill="#333333" stroke="#333333" stroke-width="2" points="123.57,-436.9 120.07,-426.9 116.57,-436.9 123.57,-436.9"/>
</g>
<!-- node_16 -->
<g id="node17" class="node">
<title>node_16</title>
<polygon fill="#e91e63" stroke="black" stroke-width="2" points="201.4,-236.9 72.02,-236.9 38.73,-136.7 168.12,-136.7 201.4,-236.9"/>
<text xml:space="preserve" text-anchor="middle" x="120.07" y="-189.65" font-family="Arial" font-size="12.00" fill="white">Print</text>
<text xml:space="preserve" text-anchor="middle" x="120.07" y="-175.4" font-family="Arial" font-size="12.00" fill="white">Output</text>
</g>
<!-- node_15&#45;&gt;node_16 -->
<g id="edge16" class="edge">
<title>node_15&#45;&gt;node_16</title>
<path fill="none" stroke="#333333" stroke-width="2" d="M120.07,-322.12C120.07,-322.12 120.07,-250.65 120.07,-250.65"/>
<polygon fill="#333333" stroke="#333333" stroke-width="2" points="123.57,-250.65 120.07,-240.65 116.57,-250.65 123.57,-250.65"/>
</g>
<!-- node_17 -->
<g id="node18" class="node">
<title>node_17</title>
<ellipse fill="#f44336" stroke="black" stroke-width="2" cx="120.07" cy="-25.35" rx="45.93" ry="25.35"/>
<text xml:space="preserve" text-anchor="middle" x="120.07" y="-21.07" font-family="Arial" font-size="12.00" fill="white">End</text>
</g>
<!-- node_16&#45;&gt;node_17 -->
<g id="edge17" class="edge">
<title>node_16&#45;&gt;node_17</title>
<path fill="none" stroke="#333333" stroke-width="2" d="M120.07,-135.72C120.07,-135.72 120.07,-64.32 120.07,-64.32"/>
<polygon fill="#333333" stroke="#333333" stroke-width="2" points="123.57,-64.32 120.07,-54.32 116.57,-64.32 123.57,-64.32"/>
</g>
</g>
</svg>
